<?xml version="1.0" encoding="UTF-8"?>
<svg id="svg2" xmlns="http://www.w3.org/2000/svg" xmlns:svg="http://www.w3.org/2000/svg" version="1.1" viewBox="0 0 400 14">
  <!-- Generator: Adobe Illustrator 30.0.0, SVG Export Plug-In . SVG Version: 2.1.1 Build 123)  -->
  <path id="path2830" d="M205,7c0,2.76-2.24,5-5,5s-5-2.24-5-5,2.24-5,5-5,5,2.24,5,5Z" fill="#4a4a4a"/>
  <path id="path2852" d="M205,7c0-2.76-2.24-5-5-5s-5,2.24-5,5" fill="#4a4a4a"/>
  <path id="path2854" d="M185,2L5,7l180,5c2.76,0,5-2.24,5-5s-2.24-5-5-5Z" fill="#4a4a4a"/>
  <path id="path2859" d="M185,2L8.66,6.91c.44.06.89.09,1.34.09h180c0-2.76-2.24-5-5-5Z" fill="#4a4a4a"/>
  <path id="path28541" data-name="path2854" d="M215,2l180,5-180,5c-2.76,0-5-2.24-5-5s2.24-5,5-5Z" fill="#4a4a4a"/>
  <path id="path28591" data-name="path2859" d="M215,2l176.34,4.91c-.44.06-.89.09-1.34.09h-180c0-2.76,2.24-5,5-5Z" fill="#4a4a4a"/>
</svg>