<?xml version="1.0" encoding="UTF-8"?>
<svg id="Layer_2" data-name="Layer 2" xmlns="http://www.w3.org/2000/svg" viewBox="0 0 157.5 9.4">
  <defs>
    <style>
      .cls-1 {
        fill: #4a4a4a;
      }
    </style>
  </defs>
  <g id="svg2">
    <path class="cls-1" d="M157.5,4.8c0,1.07-.23,1.6-.7,1.6-23.47,0-42.97.77-58.5,2.3-4.77.47-8.28.7-10.55.7-1.73,0-3.43-.65-5.1-1.95-1.5-1.17-2.8-1.75-3.9-1.75s-2.38.58-3.85,1.75c-1.67,1.3-3.38,1.95-5.15,1.95-2.27,0-5.77-.23-10.5-.7C43.72,7.17,24.2,6.4.7,6.4c-.47,0-.7-.53-.7-1.6,0-1.13.23-1.7.7-1.7,23.5,0,43.02-.8,58.55-2.4,4.73-.47,8.23-.7,10.5-.7,1.67,0,3.38.7,5.15,2.1,1.4,1.07,2.68,1.6,3.85,1.6s2.48-.55,3.85-1.65c1.77-1.37,3.48-2.05,5.15-2.05,2.27,0,5.78.25,10.55.75,15.53,1.57,35.03,2.35,58.5,2.35.47,0,.7.57.7,1.7Z"/>
  </g>
</svg>